<?xml version="1.0" encoding="UTF-8"?>
<svg id="a" xmlns="http://www.w3.org/2000/svg" width="256" height="256" viewBox="0 0 256 256">
    <defs>
        <style>.b{fill:#fff;}.c{fill:#1d1160;}</style>
    </defs>
    <rect class="c" width="256" height="256" rx="21.877" ry="21.877" />
    <path class="b"
        d="m193.194,169.52c-14.573,25.678-35.415,52.024-65.194,74.407-3.213-2.415-6.323-4.878-9.33-7.383l-5.566-.661c4.706,4.142,9.674,8.188,14.897,12.117,30.454-22.892,51.935-49.768,67.086-76.051l-1.892-2.429Zm-25.974-124.009l-1.638,4.018c43.011,2.725,61.499,9.447,61.499,9.447,0,0-.275,9.502-3.007,24.756l1.693,8.842c5.009-22.438,5.443-37.231,5.443-37.231,0,0-19.238-6.998-63.99-9.832Zm-84.797,4.486l-3.048-3.922c-39.564,3.103-54.584,9.268-54.584,9.268,0,0,.461,15.867,5.993,39.667l2.697-3.33c-4.183-19.83-4.562-32.704-4.562-32.704,0,0,14.704-6.034,53.504-8.979Z" />
    <polygon class="b"
        points="163.983 57.885 190.53 70.421 190.53 75.908 227.769 107.66 221.132 126.832 210.071 119.458 204.909 112.084 211.546 114.296 215.97 114.296 220.395 108.397 185.797 79.425 150.706 63.599 141.861 77.795 115.683 91.437 138.321 72.544 142.449 61.535 111.487 61.535 96.349 61.535 83.276 73.92 66.277 100.286 76.232 68.946 93.93 54.198 155.134 54.198 163.983 57.885" />
    <polygon class="b"
        points="157.587 81.489 179.605 84.929 193.21 100.875 169.972 92.498 157.587 81.489" />
    <polygon class="b"
        points="218.136 133.782 202.328 141.212 175.727 133.838 160.7 127.865 149.33 119.332 149.33 123.461 157.347 130.151 168.596 135.158 183.045 141.35 202.999 161.992 218.136 133.782" />
    <polygon class="b"
        points="139.649 30.226 124.901 8 110.153 30.226 124.901 49.398 139.649 30.226" />
    <polygon class="b" points="93.794 15.985 93.93 49.398 119.736 49.338 93.794 15.985" />
    <polygon class="b" points="155.785 15.985 129.843 49.338 155.134 49.398 155.785 15.985" />
    <polygon class="b"
        points="65.386 75.297 53.689 82.865 42.68 94.562 37.176 119.332 34.424 134.47 41.992 120.709 46.121 111.076 44.745 135.846 44.248 168.44 58.506 197.083 57.818 179.194 61.946 170.937 83.933 197.083 109.422 225.294 116.303 231.487 108.046 212.909 103.918 202.588 93.597 188.827 81.212 173.001 61.946 153.736 57.13 133.782 55.754 106.259 65.386 75.297" />
    <polygon class="b"
        points="94.285 79.425 85.34 88.37 71.579 103.507 69.515 117.268 68.827 134.47 76.395 115.892 80.154 109.847 79.148 127.956 78.785 151.785 89.208 172.727 91.533 165.433 101.854 158.552 129.376 208.092 131.463 197.878 125.427 184.296 122.409 176.751 114.863 166.69 105.809 155.12 89.469 144.103 88.78 129.653 89.469 108.323 94.285 79.425" />
</svg>